<svg width="760" height="420" viewBox="0 0 760 420" fill="none" xmlns="http://www.w3.org/2000/svg">
  <rect width="760" height="420" rx="14" fill="#FFFFFF"/>
  <rect x="0.5" y="0.5" width="759" height="419" rx="13.5" stroke="#E8E1D8"/>
  <rect x="24" y="24" width="712" height="332" rx="10" fill="#FFFFFF" stroke="#E8E1D8"/>
  <path d="M392 24V356" stroke="#E8E1D8"/>
  <text x="48" y="66" fill="#111111" font-family="Inter, Arial, sans-serif" font-size="18" font-weight="800">Mechanics</text>
  <text x="329" y="66" fill="#111111" font-family="Inter, Arial, sans-serif" font-size="15">7 / 12</text>
  <path d="M48 96H350" stroke="#EFECE6" stroke-width="5" stroke-linecap="round"/>
  <path d="M48 96H238" stroke="#229954" stroke-width="5" stroke-linecap="round"/>
  <rect x="24" y="130" width="368" height="58" fill="#FFFFFF"/>
  <text x="48" y="165" fill="#111111" font-family="Inter, Arial, sans-serif" font-size="15">1.1 Scalars and Vectors</text>
  <circle cx="348" cy="159" r="12" fill="#DDF3E5"/>
  <path d="M342 159L347 164L356 153" stroke="#229954" stroke-width="2" stroke-linecap="round"/>
  <rect x="24" y="188" width="368" height="58" fill="#FFF3E9"/>
  <text x="48" y="223" fill="#FF7514" font-family="Inter, Arial, sans-serif" font-size="15" font-weight="800">1.2 Kinematics</text>
  <circle cx="348" cy="217" r="12" stroke="#FF7514" stroke-width="3"/>
  <rect x="24" y="246" width="368" height="58" fill="#FFFFFF"/>
  <text x="48" y="281" fill="#111111" font-family="Inter, Arial, sans-serif" font-size="15">1.3 Forces and Newton's Laws</text>
  <circle cx="348" cy="275" r="12" stroke="#D6D0C7" stroke-width="2"/>
  <rect x="24" y="304" width="368" height="52" fill="#FFFFFF"/>
  <text x="48" y="337" fill="#111111" font-family="Inter, Arial, sans-serif" font-size="15">1.4 Work, Energy and Power</text>
  <circle cx="348" cy="331" r="12" stroke="#D6D0C7" stroke-width="2"/>
  <text x="424" y="66" fill="#111111" font-family="Inter, Arial, sans-serif" font-size="19" font-weight="800">1.2 Kinematics</text>
  <text x="424" y="106" fill="#66615B" font-family="Inter, Arial, sans-serif" font-size="15">Learn how to describe motion</text>
  <text x="424" y="128" fill="#66615B" font-family="Inter, Arial, sans-serif" font-size="15">using equations of motion.</text>
  <text x="424" y="176" fill="#111111" font-family="Inter, Arial, sans-serif" font-size="15" font-weight="800">Includes:</text>
  <text x="424" y="218" fill="#111111" font-family="Inter, Arial, sans-serif" font-size="15">+ Notes</text>
  <text x="424" y="258" fill="#111111" font-family="Inter, Arial, sans-serif" font-size="15">+ Worked examples</text>
  <text x="424" y="298" fill="#111111" font-family="Inter, Arial, sans-serif" font-size="15">+ Exam questions</text>
  <rect x="424" y="326" width="124" height="42" rx="7" fill="#FF7514"/>
  <text x="454" y="352" fill="#FFFFFF" font-family="Inter, Arial, sans-serif" font-size="14" font-weight="800">Start Topic</text>
</svg>
